Coordinates
version=1
nRows=13
nColumns=34
inDegrees=yes

Units are S.I. units (second, meters, Newtons, ...)
If the header above contains a line with 'inDegrees', this indicates whether rotational values are in degrees (yes) or radians (no).

endheader
time	pelvis_tilt	pelvis_list	pelvis_rotation	pelvis_tx	pelvis_ty	pelvis_tz	hip_flexion_r	hip_adduction_r	hip_rotation_r	knee_angle_r	ankle_angle_r	subtalar_angle_r	mtp_angle_r	hip_flexion_l	hip_adduction_l	hip_rotation_l	knee_angle_l	ankle_angle_l	subtalar_angle_l	mtp_angle_l	lumbar_extension	lumbar_bending	lumbar_rotation	arm_flex_r	arm_add_r	arm_rot_r	elbow_flex_r	pro_sup_r	arm_flex_l	arm_add_l	arm_rot_l	elbow_flex_l	pro_sup_l
     18.73333330	     -8.31075323	     -9.71291787	    -64.33478018	      7.46031804	      1.13813034	     19.51599157	      1.29116510	     21.79981959	     -3.32611270	     16.87067594	     -0.16479681	     35.00000000	      0.00000000	    -10.91509507	     -8.98801233	      4.18185879	     23.16769546	     22.61647636	    -17.29230333	      0.00000000	    -10.26246141	     16.80598928	     -2.91250127	     20.61015536	     -0.20635749	      5.26450602	     38.76302795	    119.74817918	      8.71714078	     -7.41216991	     50.41418376	     34.33920137	    119.74817918
     18.75000000	     -8.47967999	     -8.81341289	    -63.12838137	      7.46865545	      1.13601021	     19.52389576	      3.02674600	     21.20485054	     -5.64755176	     19.13532466	      3.08878961	     35.00000000	      0.00000000	     -8.37645090	     -8.61736489	      4.50111314	     26.56405472	     19.51931496	    -20.27772873	      0.00000000	     -8.28101101	     16.49035215	     -4.08109575	     19.53328138	     -0.47487706	      4.13493798	     37.91717778	    119.74817918	      7.91794293	     -7.28676613	     50.51035623	     34.94098568	    119.54633185
     18.76666670	     -8.76005795	     -9.68016187	    -61.86539983	      7.47629097	      1.13673933	     19.53210373	      1.65358646	     22.01183788	     -6.10231517	     18.69334258	      4.55194649	     35.00000000	      0.00000000	     -8.00631183	     -9.11257567	      5.67386963	     28.93043347	     15.30242198	    -24.98356824	      0.00000000	     -7.89650055	     17.27044773	     -5.08620854	     18.65724512	     -0.92792462	      4.12226002	     36.99080465	    119.74817918	      7.69210891	     -7.08886899	     50.57664123	     34.97807785	    119.00808012
     18.78333330	     -8.88880529	    -10.68222339	    -61.61816041	      7.48185944	      1.13814410	     19.54018146	     -0.33393459	     22.81189956	     -5.43923999	     17.87535377	      5.99582800	     34.96873606	      0.00000000	     -7.58850542	     -9.98559761	      3.62414280	     31.88440934	     11.98606328	    -27.24399919	      0.00000000	     -7.96608316	     17.70801244	     -5.03943805	     18.19602147	     -1.12121918	      4.08670107	     35.01197692	    119.74817918	      7.73684734	     -7.36789847	     51.15499342	     35.20415448	    118.90646590
     18.80000000	     -8.27233386	    -12.07802219	    -62.11678074	      7.48667238	      1.14109490	     19.55090365	     -4.00755659	     23.73775455	     -0.76868905	     16.24183346	      7.47184329	     30.48929117	      0.00000000	     -8.79067939	    -10.27390417	      0.55011627	     33.48461728	      5.60069887	    -32.27322499	      0.00000000	     -8.83344516	     17.59320700	     -4.01557098	     17.30365956	     -1.50319489	      4.85652390	     33.75354241	    119.74817918	      8.08470769	     -7.39725940	     52.08630037	     34.70386671	    118.55783208
     18.81666670	     -7.32836832	    -13.22337738	    -63.22778278	      7.49056510	      1.14385271	     19.56318745	     -7.69755156	     24.04725144	      4.85375570	     15.05844284	      8.47054411	     26.20947732	      0.00000000	    -10.37868502	    -10.57389741	     -4.30454767	     34.59752108	      0.05311232	    -34.77058181	      0.00000000	     -9.90470071	     17.11842988	     -2.86299528	     16.53865134	     -1.39856261	      6.19926229	     32.41520287	    119.74817918	      7.95177197	     -7.21013213	     52.29788443	     33.33955432	    117.82800209
     18.83333330	     -6.56812854	    -14.04652971	    -64.47448688	      7.49468084	      1.14570040	     19.57676850	    -11.20912039	     23.97468815	     10.00335246	     13.65769991	      8.76647268	     22.72357895	      0.00000000	    -11.92185771	    -11.41192360	    -11.01667197	     35.31557978	     -4.22258489	    -35.00000000	      0.00000000	    -10.36155824	     16.61933884	     -1.94052535	     15.76668434	     -0.87321752	      7.49672086	     30.69829610	    119.74817918	      7.68553821	     -6.88705619	     51.91611783	     31.59789541	    117.21182736
     18.85000000	     -5.71548941	    -14.49709500	    -65.57733393	      7.49652032	      1.14660624	     19.58922772	    -14.06509451	     23.55521074	     14.63738150	     12.47391690	      8.62181462	     19.34723400	      0.00000000	    -13.21943786	    -11.89360431	    -16.15133337	     35.65602772	     -9.41975302	    -35.00000000	      0.00000000	    -10.57798154	     15.73141452	     -1.29108012	     14.96967744	      0.00494515	      8.72867213	     29.33448673	    119.74817918	      7.56163198	     -6.82278442	     50.32568676	     29.76660165	    116.76491387
     18.86666670	     -4.87092957	    -14.51189760	    -65.47188669	      7.50020447	      1.14619598	     19.59877355	    -15.25006520	     22.97410441	     16.11425918	     12.47523090	      9.41153605	     17.65720761	      0.00000000	    -13.40799419	    -11.75251454	    -16.80128852	     36.48363886	    -13.79854173	    -35.00000000	      0.00000000	    -10.44859333	     15.03424219	     -1.19487719	     14.33511954	      0.66194563	      9.05681964	     28.46721878	    119.74817918	      7.83331887	     -6.11264340	     47.63485008	     27.82089098	    116.29681325
     18.88333330	     -3.84832714	    -14.37513025	    -64.93594564	      7.50496937	      1.14548261	     19.60600722	    -15.70137298	     22.19182313	     16.32339040	     13.22093012	     10.38474900	     16.61986331	      0.00000000	    -13.18418356	    -10.90029562	    -16.04807036	     37.44882197	    -16.04108388	    -32.29356655	      0.00000000	    -10.38221796	     14.31617074	     -1.38094736	     14.10139349	      0.99272934	      9.30406902	     27.74517434	    119.74817918	      8.45256758	     -5.20704829	     45.94129315	     25.91294146	    116.10369512
     18.90000000	     -2.48485470	    -14.37238200	    -64.26798083	      7.51180480	      1.14501677	     19.61417690	    -16.46264352	     20.97010888	     15.82880418	     14.02645181	     11.07762017	     16.82644789	      0.00000000	    -12.76130717	     -8.94885045	    -12.61291322	     39.08845675	    -13.34294600	    -26.83584636	      0.00000000	    -10.41843873	     13.34697179	     -2.10571681	     13.59106591	      1.24468519	      9.62949530	     27.35289337	    119.74817918	      7.79700285	     -4.43288959	     41.13084279	     25.47516102	    115.74418426
     18.91666670	     -1.61623284	    -14.13778473	    -64.50439043	      7.51676567	      1.14375321	     19.62403914	    -16.90346444	     20.00219572	     15.91882892	     15.14255608	     12.37041355	     17.24252597	      0.00000000	    -12.88705866	     -8.12351475	    -12.72293371	     39.27775383	    -13.29453311	    -21.46487650	      0.00000000	    -10.09565907	     12.70726955	     -2.25227236	     12.94887858	      1.33479897	     10.56244338	     27.31570829	    119.74817918	      6.96887496	     -3.58012073	     36.98876800	     25.11857762	    116.04826687
     18.93333330	     -0.64689930	    -14.14802339	    -64.33375799	      7.52190689	      1.14239986	     19.63303557	    -17.71640335	     19.18890090	     15.98211317	     15.88368316	     13.66382106	     16.84717463	      0.00000000	    -13.61111583	     -7.86495536	    -14.12629576	     38.90350143	    -13.85718779	    -18.94983448	      0.00000000	     -9.95247952	     12.07408419	     -3.22283862	     12.40095395	      1.27205863	     11.82498445	     27.66659419	    119.74817918	      6.44201096	     -2.83641072	     33.67640388	     24.60610527	    116.81849271
